<svg width="56" height="56" viewBox="0 0 56 56" fill="none" xmlns="http://www.w3.org/2000/svg">
<path d="M27.9999 2C13.7005 2 2 13.7057 2 28.0115V34.6877" stroke="white" stroke-width="4" stroke-linecap="round" stroke-linejoin="round"/>
<path d="M28 2C42.2994 2 53.9999 13.7057 53.9999 28.0115V34.6877" stroke="white" stroke-width="4" stroke-linecap="round" stroke-linejoin="round"/>
<path d="M44.0175 53.9998H48.2247C51.4155 53.9998 53.9999 51.4143 53.9999 48.222V34.6848H44.0175C42.4235 34.6848 41.1299 35.979 41.1299 37.5736V51.1109C41.1299 52.7056 42.4206 53.9998 44.0175 53.9998Z" stroke="white" stroke-width="4" stroke-linecap="round" stroke-linejoin="round"/>
<path d="M11.9824 53.9998H7.77519C4.5844 53.9998 2 51.4143 2 48.222V34.6848H11.9824C13.5764 34.6848 14.87 35.979 14.87 37.5736V51.1109C14.87 52.7056 13.5793 53.9998 11.9824 53.9998Z" stroke="white" stroke-width="4" stroke-linecap="round" stroke-linejoin="round"/>
</svg>
