<svg width="118" height="97" viewBox="0 0 118 97" fill="none" xmlns="http://www.w3.org/2000/svg">
<g clip-path="url(#clip0)">
<path d="M56.5562 17.2052C56.5828 17.5497 56.5098 17.8947 56.3459 18.1992C56.182 18.5038 55.9339 18.7554 55.631 18.9242L53.0869 14.5653C54.783 13.6598 56.4791 15.5323 56.5562 17.2052Z" fill="url(#paint0_linear)"/>
<path d="M30.3598 28.2712C30.5031 27.8355 30.7985 27.4652 31.1924 27.2275C31.3916 27.1343 31.612 27.0951 31.8313 27.114C32.0507 27.1328 32.2611 27.2091 32.4413 27.335C32.9653 27.6686 33.4031 28.1203 33.7191 28.6536C34.0352 29.1868 34.2208 29.7867 34.2607 30.4046C34.2923 30.6306 34.26 30.8609 34.1674 31.0697C34.0748 31.2784 33.9255 31.4574 33.7365 31.5864C31.6549 32.6301 29.8664 29.9902 30.3598 28.2712Z" fill="url(#paint1_radial)"/>
<path d="M33.1967 28.0103C32.9655 27.7398 32.689 27.5113 32.3795 27.335L54.3358 14.6728C54.6424 14.8534 54.9183 15.0813 55.153 15.3481C55.4388 15.6739 55.6728 16.0414 55.8469 16.4378C56.0417 16.8459 56.1468 17.2907 56.1552 17.7424C56.1868 17.9684 56.1545 18.1987 56.0619 18.4075C55.9693 18.6162 55.8201 18.7952 55.631 18.9242L33.7363 31.5864C33.9254 31.4574 34.0746 31.2784 34.1672 31.0697C34.2598 30.8609 34.2921 30.6306 34.2605 30.4046C34.2555 29.9524 34.1502 29.5069 33.9522 29.1C33.7593 28.6996 33.5043 28.3319 33.1967 28.0103Z" fill="url(#paint2_linear)"/>
<path d="M53.087 14.5653C53.2858 14.4705 53.5065 14.4305 53.7262 14.4494C53.9458 14.4683 54.1564 14.5454 54.3359 14.6728C54.6425 14.8534 54.9184 15.0813 55.1531 15.3481C55.4389 15.6739 55.6729 16.0414 55.8469 16.4378L33.9522 29.1614C33.7782 28.765 33.5442 28.3975 33.2584 28.0717C33.0273 27.8012 32.7508 27.5727 32.4412 27.3964C32.261 27.2705 32.0506 27.1942 31.8313 27.1754C31.6119 27.1565 31.3915 27.1957 31.1923 27.2889L53.087 14.5653Z" fill="url(#paint3_linear)"/>
<path style="mix-blend-mode:screen" opacity="0.3" d="M54.3359 14.6728C54.6425 14.8534 54.9184 15.0813 55.1531 15.3481L33.1967 28.0103C32.9656 27.7398 32.6891 27.5113 32.3795 27.335L54.3359 14.6728Z" fill="url(#paint4_linear)"/>
<path style="mix-blend-mode:screen" opacity="0.5" d="M31.8552 29.1614C32.2253 29.5758 32.7187 29.76 32.95 29.5604C33.1812 29.3609 33.0579 28.8544 32.6878 28.4247C32.3178 27.9949 31.8244 27.8261 31.6085 28.0256C31.3927 28.2252 31.4852 28.6549 31.8552 29.1614Z" fill="url(#paint5_linear)"/>
<path d="M49.5252 22.4543C49.7078 22.3164 49.8508 22.1333 49.9401 21.9233C50.0294 21.7132 50.0618 21.4835 50.034 21.2571C50.0182 20.8063 49.9134 20.363 49.7257 19.9525C49.548 19.5581 49.3144 19.1911 49.0318 18.8628C48.7971 18.596 48.5213 18.3681 48.2146 18.1875C48.0373 18.0685 47.8325 17.9962 47.6195 17.9774C47.4065 17.9587 47.1921 17.994 46.9965 18.0801L49.1243 16.8829C49.3243 16.7927 49.5442 16.7552 49.7629 16.774C49.9816 16.7928 50.1918 16.8673 50.3733 16.9903C50.6799 17.1709 50.9557 17.3989 51.1905 17.6657C51.473 17.9939 51.7067 18.3609 51.8843 18.7554C52.0791 19.1635 52.1843 19.6082 52.1927 20.06C52.2232 20.2888 52.1922 20.5216 52.1028 20.7346C52.0134 20.9477 51.8689 21.1332 51.6839 21.2725C50.8667 21.7022 50.1574 22.1166 49.5252 22.4543Z" fill="url(#paint6_linear)"/>
<path d="M37.5755 29.3763C37.7556 29.2398 37.8972 29.0592 37.9864 28.8521C38.0755 28.645 38.1093 28.4184 38.0843 28.1945C38.0685 27.7387 37.9638 27.2904 37.776 26.8745C37.6019 26.4829 37.3678 26.1204 37.0821 25.8002C36.8559 25.5248 36.5785 25.2955 36.2649 25.1248C36.0902 25.0006 35.8859 24.9239 35.6723 24.9024C35.4586 24.8809 35.243 24.9152 35.0468 25.0021L37.1746 23.7589C37.3746 23.6686 37.5945 23.6311 37.8132 23.6499C38.0319 23.6688 38.2421 23.7433 38.4236 23.8663C38.7302 24.0469 39.006 24.2748 39.2408 24.5416C39.5233 24.8699 39.7569 25.2369 39.9346 25.6313C40.1294 26.0394 40.2345 26.4842 40.243 26.9359C40.2735 27.1648 40.2425 27.3976 40.1531 27.6106C40.0637 27.8236 39.9192 28.0092 39.7342 28.1484C38.917 28.6242 38.2077 29.0386 37.5755 29.3763Z" fill="url(#paint7_linear)"/>
<path d="M40.5976 30.8497L43.188 29.3609V28.1484L40.5976 29.6372V30.8497Z" fill="#D28D05"/>
<path d="M37.3443 28.9772L40.5977 30.8497V29.6372L37.3443 27.7647V28.9772Z" fill="#D28D05"/>
<path d="M40.5976 29.6372L43.188 28.1484L39.9346 26.276L37.3443 27.7647L40.5976 29.6372Z" fill="#F0B324"/>
<path d="M52.6089 23.943L55.1992 22.4543V21.2418L52.6089 22.7305V23.943Z" fill="#D28D05"/>
<path d="M49.3555 22.0706L52.6089 23.943V22.7305L49.3555 20.8581V22.0706Z" fill="#D28D05"/>
<path d="M52.6089 22.7305L55.1992 21.2418L51.9459 19.3693L49.3555 20.8581L52.6089 22.7305Z" fill="#F0B324"/>
<path d="M111 13.89V27.7801L110.63 27.6266V13.3835C110.738 13.5524 110.877 13.7059 111 13.89Z" fill="#F0B324"/>
<path d="M101.81 32.6301L110.63 27.6266L111 27.8415L102.18 32.9063C99.8522 34.257 97.9865 34.4411 96.8301 33.8119L96.4601 33.597C97.6165 34.2109 99.4976 33.9807 101.81 32.6301Z" fill="#FFD040"/>
<path d="M95.4578 30.7883L95.0877 30.5734L83.5853 37.1885L83.9553 37.4033L95.4578 30.7883Z" fill="#FFD040"/>
<path d="M83.9553 37.4033V45.3843C83.9325 45.603 83.9691 45.8238 84.0613 46.0236C84.1535 46.2234 84.298 46.3948 84.4795 46.5201L84.1094 46.3206C83.929 46.1907 83.7857 46.0162 83.6938 45.8143C83.6019 45.6124 83.5644 45.3902 83.5852 45.1695V37.1885L83.9553 37.4033Z" fill="#F0B324"/>
<path d="M95.4578 30.7883C95.4578 34.1342 98.0944 35.1932 102.18 32.8449L111 27.7801V11.8334C112.302 12.8544 113.543 13.9511 114.716 15.1179C114.716 16.6527 114.716 18.74 114.716 27.0127C114.677 27.8426 114.439 28.6514 114.024 29.372C113.608 30.0926 113.026 30.7043 112.326 31.1566L85.7902 46.3973C84.8034 46.9805 83.9862 46.5201 83.9862 45.3843V37.4033L95.4578 30.7883Z" fill="#C68209"/>
<path d="M100.762 8.88655L104.709 6.79921C103.94 7.33893 103.329 8.07257 102.939 8.92486C102.549 9.77715 102.393 10.7174 102.489 11.6492C102.628 14.2659 103.387 16.8129 104.702 19.0826C106.018 21.3523 107.853 23.2806 110.059 24.7104C110.833 25.2694 111.743 25.6125 112.694 25.7043C113.646 25.796 114.604 25.6331 115.471 25.2323L111.694 27.6266C110.823 28.0363 109.859 28.2082 108.9 28.1246C107.941 28.041 107.021 27.7049 106.236 27.1508C104.007 25.6894 102.15 23.7319 100.812 21.4331C99.4737 19.1342 98.6912 16.5571 98.5262 13.9054C98.4318 12.9479 98.5881 11.9823 98.9799 11.1028C99.3717 10.2233 99.9856 9.45975 100.762 8.88655Z" fill="#3C3936"/>
<path d="M101.841 13.0919C103.597 13.8821 105.233 14.9156 106.698 16.1616C105.537 14.4235 104.59 12.553 103.876 10.5902C103.522 9.17816 104.216 8.31867 105.418 8.65633C106.114 8.93189 106.736 9.36538 107.234 9.92228C107.732 10.4792 108.092 11.1441 108.286 11.8641C108.518 13.4005 108.429 14.968 108.024 16.4685C109.257 15.9235 110.619 15.7322 111.956 15.916C112.657 16.1985 113.28 16.6419 113.776 17.2101C114.272 17.7782 114.625 18.455 114.808 19.1851C115.163 20.6125 114.454 21.472 113.266 21.119C111.513 20.3323 109.882 19.2985 108.425 18.0494C109.563 19.7959 110.499 21.6649 111.216 23.6207C111.57 25.0328 110.861 25.8922 109.674 25.5546C108.981 25.2771 108.362 24.8427 107.867 24.2859C107.372 23.7292 107.014 23.0653 106.821 22.3468C106.587 20.785 106.676 19.1918 107.084 17.6657C105.85 18.2106 104.488 18.402 103.152 18.2182C102.454 17.9472 101.83 17.5172 101.329 16.9629C100.828 16.4085 100.465 15.7451 100.268 15.0258C99.9138 13.5984 100.623 12.7389 101.841 13.0919Z" fill="#282625"/>
<path d="M104.493 6.41551C105.396 6.00192 106.393 5.83511 107.382 5.93221C108.372 6.02932 109.317 6.38684 110.121 6.96804C112.416 8.45495 114.325 10.4601 115.695 12.8205C117.064 15.1808 117.854 17.8295 118 20.5511C118.099 21.5214 117.938 22.5005 117.531 23.3879C117.125 24.2753 116.488 25.039 115.687 25.6006L111.833 27.8415C112.551 27.2153 113.12 26.4366 113.496 25.5627C113.872 24.6887 114.047 23.7419 114.007 22.7919C113.885 20.2441 113.19 17.7561 111.973 15.5114C110.756 13.2668 109.048 11.3227 106.976 9.82278C106.61 9.59182 106.229 9.38668 105.835 9.20886C103.784 8.28797 101.949 7.90427 100.639 8.67168L104.493 6.41551Z" fill="url(#paint8_linear)"/>
<path d="M106.266 9.20886C108.564 10.693 110.475 12.6976 111.845 15.0585C113.214 17.4194 114.002 20.0695 114.145 22.7919C114.145 27.7954 110.584 29.806 106.205 27.2889C103.908 25.8038 101.997 23.7991 100.628 21.4384C99.2585 19.0777 98.4696 16.428 98.3256 13.7059C98.341 8.70238 101.887 6.69177 106.266 9.20886ZM106.266 26.9359C110.46 29.3609 113.883 27.4117 113.899 22.6231C113.755 19.9963 112.987 17.4409 111.658 15.1674C110.328 12.8939 108.475 10.9674 106.251 9.54652C102.057 7.13687 98.6494 9.08608 98.634 13.8747C98.7709 16.492 99.5283 19.0399 100.844 21.31C102.16 23.5801 103.997 25.5079 106.205 26.9359H106.266Z" fill="#282625"/>
<path d="M106.621 15.2407C108.363 15.0411 109.797 18.0187 108.98 19.1851L105.064 23.5593L100.793 16.3457L106.621 15.2407Z" fill="#282625"/>
<path d="M98.9732 30.9571L107.654 24.8179C108.061 24.4799 108.381 24.0501 108.587 23.5643C108.794 23.0784 108.881 22.5506 108.841 22.0245C108.765 20.4173 108.306 18.8512 107.501 17.4554C106.697 16.0597 105.571 14.8744 104.216 13.9975C103.773 13.6865 103.264 13.4829 102.729 13.4029C102.193 13.323 101.646 13.3689 101.132 13.537L91.418 17.8959L98.9732 30.9571Z" fill="url(#paint9_linear)"/>
<path d="M85.004 47.3949L99.4977 30.512C100.119 29.7159 100.436 28.7259 100.392 27.7187C100.305 25.8605 99.7784 24.0491 98.8538 22.4326C97.9293 20.816 96.6335 19.4403 95.0725 18.4177C94.1663 17.8134 93.0705 17.557 91.9887 17.6964L70.0478 21.5948L85.004 47.3949Z" fill="url(#paint10_linear)"/>
<path d="M68.3386 39.7545C64.1438 32.4753 64.1744 24.6152 68.4069 22.1984C72.6394 19.7816 79.4711 23.7234 83.6659 31.0026C87.8607 38.2817 87.8301 46.1418 83.5976 48.5586C79.3651 50.9754 72.5334 47.0336 68.3386 39.7545Z" fill="#AB7008"/>
<path d="M110.615 7.32105V5.21836L110.985 5.43323V7.56662L110.615 7.32105Z" fill="#F0B324"/>
<path d="M83.9555 18.8782L83.5854 18.6633L83.6163 22.3161L83.9863 22.5464L83.9555 18.8782Z" fill="#F0B324"/>
<path d="M111.925 0.33766C112.167 0.155575 112.455 0.0434756 112.757 0.0136897C113.059 -0.0160962 113.363 0.0375854 113.637 0.168831L114.007 0.368356C113.732 0.243651 113.429 0.193581 113.128 0.223234C112.827 0.252886 112.54 0.361204 112.295 0.537185L85.7594 15.7932L85.3893 15.5783L111.925 0.33766Z" fill="#FFD040"/>
<path d="M83.8936 17.328C84.0771 16.9332 84.3159 16.5664 84.6029 16.2383C84.8312 15.9813 85.0962 15.7589 85.3892 15.5783L85.7593 15.7932C85.4619 15.9678 85.1961 16.1909 84.9729 16.4532C84.6822 16.7784 84.4431 17.1459 84.2637 17.5429C84.0757 17.9642 83.971 18.4175 83.9553 18.8782L83.5852 18.6633C83.601 18.2026 83.7057 17.7493 83.8936 17.328Z" fill="#FFD040"/>
<path d="M85.7594 15.7932L112.295 0.537186C113.621 -0.214871 114.7 0.383705 114.7 1.90317C114.7 6.73782 114.7 9.57722 114.7 11.3422C113.679 9.88907 112.423 8.61344 110.985 7.56662V5.43323L102.18 10.4981C100.566 11.3707 99.1493 12.5651 98.0191 14.007C96.889 15.4488 96.0696 17.107 95.612 18.8782L83.9862 22.531V18.8782C84.0198 18.262 84.1977 17.6622 84.5055 17.1265C84.8134 16.5909 85.2428 16.1343 85.7594 15.7932Z" fill="#C68209"/>
<path d="M84.6031 16.2383L84.9731 16.4532C84.6825 16.7784 84.4433 17.1459 84.2639 17.5429L83.8938 17.328C84.0774 16.9332 84.3161 16.5664 84.6031 16.2383Z" fill="#F9E1A7"/>
<path d="M20.3222 36.9582C20.3222 36.9582 20.3222 36.8661 20.4455 36.8047C21.304 36.0359 22.2512 35.3713 23.2672 34.8248C24.1427 34.2059 25.1418 33.7819 26.1967 33.5816L35.448 38.9074C34.394 39.1104 33.3954 39.5342 32.5184 40.1506C31.5025 40.6971 30.5553 41.3617 29.6968 42.1305L29.5889 42.284C29.5889 42.4222 20.3376 37.081 20.3376 37.081C20.3184 37.0431 20.3129 36.9997 20.3222 36.9582Z" fill="#FFD040"/>
<path d="M32.4722 40.1506C34.1066 39.2144 35.4326 38.6158 35.4326 38.9535C34.6143 39.8906 33.6052 40.644 32.4722 41.1636C30.8378 42.0998 29.5272 42.6984 29.5272 42.3608C30.3433 41.4277 31.3465 40.6749 32.4722 40.1506Z" fill="#D28D05"/>
<path d="M69.801 40.1506C69.8686 41.0222 69.6856 41.895 69.2733 42.6669C68.861 43.4388 68.2365 44.0779 67.4727 44.5095L61.0431 33.5203C65.4991 31.2027 69.5851 35.9453 69.801 40.1506Z" fill="url(#paint11_linear)"/>
<path d="M0.21585 70.0641C0.58067 68.9793 1.34708 68.0737 2.35906 67.5316C2.85058 67.3008 3.39467 67.2033 3.93621 67.2491C4.47775 67.295 4.9975 67.4824 5.44282 67.7926C6.76176 68.6239 7.867 69.7509 8.67019 71.0834C9.47338 72.4159 9.95223 73.917 10.0685 75.4666C10.1503 76.05 10.07 76.6446 9.83627 77.1858C9.60249 77.727 9.22417 78.194 8.74244 78.5362C3.59256 81.084 -1.06391 74.4229 0.21585 70.0641Z" fill="url(#paint12_radial)"/>
<path d="M7.50914 69.4195C6.91983 68.7417 6.22165 68.166 5.44303 67.7158L64.1886 33.7658C64.9694 34.2129 65.6681 34.789 66.2547 35.4695C66.9764 36.2888 67.5644 37.2158 67.9971 38.2168C68.4715 39.2285 68.7388 40.3242 68.7834 41.4399C68.8636 42.0216 68.784 42.6141 68.5533 43.1546C68.3226 43.695 67.9492 44.1632 67.4728 44.5095L8.72723 78.4595C9.20896 78.1173 9.58728 77.6503 9.82105 77.1091C10.0548 76.5679 10.1351 75.9733 10.0532 75.3899C10.0051 74.2648 9.73803 73.1598 9.2669 72.1361C8.82027 71.1484 8.22779 70.2327 7.50914 69.4195Z" fill="url(#paint13_linear)"/>
<path d="M61.0431 33.5049C61.5346 33.274 62.0787 33.1766 62.6202 33.2224C63.1618 33.2682 63.6815 33.4557 64.1269 33.7658C64.9077 34.2129 65.6063 34.789 66.193 35.4695C66.9147 36.2888 67.5026 37.2158 67.9353 38.2168L9.26681 72.1361C8.82288 71.1376 8.2303 70.2114 7.50905 69.3888C6.91727 68.722 6.21923 68.1568 5.44294 67.7158C4.99061 67.4179 4.46733 67.244 3.9259 67.2116C3.38448 67.1793 2.84406 67.2897 2.35918 67.5316L61.0431 33.5049Z" fill="url(#paint14_linear)"/>
<path style="mix-blend-mode:screen" opacity="0.3" d="M64.1885 33.7658C64.9693 34.2129 65.668 34.789 66.2546 35.4695L7.50904 69.4195C6.91973 68.7418 6.22155 68.1661 5.44293 67.7158L64.1885 33.7658Z" fill="url(#paint15_linear)"/>
<path style="mix-blend-mode:screen" opacity="0.8" d="M3.90094 72.1361C4.82607 73.1951 6.05957 73.6709 6.63006 73.1491C7.20055 72.6272 6.92302 71.3687 5.9979 70.3097C5.07277 69.2506 3.83927 68.7748 3.25336 69.2967C2.66744 69.8185 3.03749 71.0617 3.90094 72.1361Z" fill="url(#paint16_linear)"/>
<path d="M55.924 78.2293L61.6135 74.9601V72.2896L55.924 75.5587V78.2293Z" fill="#D28D05"/>
<path d="M40.9216 69.6036L55.9241 78.2293V75.5587L40.9216 66.9331V69.6036Z" fill="#D28D05"/>
<path d="M55.924 75.5587L61.6135 72.2896L46.611 63.6639L40.9215 66.9331L55.924 75.5587Z" fill="#F0B324"/>
<path d="M46.611 63.6639L56.0935 69.1125L49.6639 72.8114L40.9214 66.9331L46.611 63.6639Z" fill="#D28D05"/>
<path d="M85.5436 61.2082L91.2332 57.9391V55.2685L85.5436 58.553V61.2082Z" fill="#D28D05"/>
<path d="M70.5258 52.5826L85.5437 61.2082V58.553L70.5258 49.912V52.5826Z" fill="#D28D05"/>
<path d="M85.5436 58.553L91.2332 55.2685L76.2153 46.6429L70.5257 49.912L85.5436 58.553Z" fill="#F0B324"/>
<path d="M76.2152 46.6429L85.6978 52.1068L79.2681 55.7903L70.5257 49.912L76.2152 46.6429Z" fill="#D28D05"/>
<path d="M32.3179 34.7328C32.389 34.7311 32.4585 34.7121 32.5204 34.6772C32.5822 34.6424 32.6345 34.593 32.6726 34.5332C32.7234 34.4391 32.7357 34.3291 32.707 34.2261C32.6782 34.1232 32.6107 34.0352 32.5184 33.9807L23.9455 29.1614C23.8992 29.1343 23.8478 29.1168 23.7945 29.1099C23.7412 29.1029 23.6871 29.1067 23.6353 29.1211C23.5835 29.1354 23.5352 29.1599 23.4931 29.1932C23.451 29.2265 23.4161 29.2679 23.3904 29.3149C23.3391 29.4049 23.3249 29.5112 23.3507 29.6114C23.3766 29.7116 23.4406 29.7979 23.5292 29.8521L32.1175 34.6867C32.1801 34.7164 32.2485 34.7321 32.3179 34.7328Z" fill="#33312F"/>
<path d="M18.9961 32.231C19.0614 32.2511 19.1313 32.2511 19.1965 32.231L55.3228 11.465C55.8168 11.2227 56.3602 11.0966 56.9109 11.0966C57.4617 11.0966 58.005 11.2227 58.499 11.465L65.5763 15.4862C65.6667 15.5374 65.7735 15.5515 65.8741 15.5258C65.9748 15.5 66.0615 15.4363 66.1159 15.3481C66.1681 15.2558 66.1828 15.1471 66.157 15.0443C66.1312 14.9416 66.0668 14.8526 65.9771 14.7956L58.8999 10.7437C58.2854 10.4262 57.6033 10.2604 56.9109 10.2604C56.2186 10.2604 55.5364 10.4262 54.9219 10.7437L18.7957 31.5404C18.7485 31.5659 18.7069 31.6007 18.6734 31.6425C18.64 31.6844 18.6153 31.7326 18.601 31.7841C18.5866 31.8356 18.5827 31.8895 18.5897 31.9426C18.5967 31.9956 18.6143 32.0467 18.6415 32.0929C18.686 32.1414 18.7412 32.179 18.8027 32.203C18.8641 32.2269 18.9303 32.2365 18.9961 32.231Z" fill="#33312F"/>
<path d="M25.4173 63.3C20.5762 54.9534 20.5736 45.9333 25.4114 43.153C30.2492 40.3727 38.0955 44.885 42.9366 53.2316C47.7777 61.5782 47.7803 70.5983 42.9425 73.3786C38.1047 76.1589 30.2584 71.6466 25.4173 63.3Z" fill="#F0B324"/>
<path d="M25.3332 43.1896L67.2106 19.1391C69.4618 17.7885 72.5918 17.9573 76.0456 19.9525C79.6435 22.2984 82.6353 25.4553 84.7785 29.1672C86.9216 32.8792 88.1557 37.0417 88.3806 41.3171C88.3806 45.2002 87.0238 47.9475 84.8343 49.2521L43.0185 73.3179C45.2234 72.0133 46.5649 69.266 46.5649 65.3829C46.5649 57.5093 41.0295 47.9475 34.2298 44.0184C30.7143 42.0231 27.5843 41.8543 25.3332 43.1896Z" fill="#D28D05"/>
<path d="M67.5808 11.5264C67.7402 11.456 67.9154 11.4288 68.0888 11.4476C68.2621 11.4665 68.4273 11.5308 68.5676 11.6339L26.8444 35.715C26.7044 35.6172 26.5412 35.5573 26.3709 35.5411C26.2006 35.525 26.029 35.5532 25.873 35.6229L67.5808 11.5264Z" fill="#FFD040"/>
<path d="M86.623 23.59L86.6384 33.2286L44.9152 57.3252L44.8998 47.6866L86.623 23.59Z" fill="#C68209"/>
<path d="M68.5676 11.6339L85.2507 21.2111L43.5275 45.3076L26.8444 35.715L68.5676 11.6339Z" fill="#FFD040"/>
<path d="M85.2508 21.2111C85.6492 21.4745 85.9806 21.8266 86.2187 22.2395C86.4569 22.6524 86.5953 23.1147 86.623 23.59L44.9152 47.6712C44.8834 47.1972 44.7416 46.737 44.5008 46.3269C44.2599 45.9167 43.9268 45.5678 43.5275 45.3076L85.2508 21.2111Z" fill="#F0B324"/>
<path d="M26.8442 35.715L43.5274 45.3076C43.9266 45.5678 44.2598 45.9167 44.5006 46.3269C44.7414 46.737 44.8832 47.1972 44.915 47.6712V57.3252C38.9788 47.1801 31.7474 41.3171 25.4719 44.5862V36.4978C25.4874 35.6229 26.0887 35.3006 26.8442 35.715Z" fill="#F0B324"/>
<path d="M17.127 68.0534C12.6393 60.3161 12.6361 51.9548 17.1199 49.3779C21.6037 46.8011 28.8766 50.9844 33.3643 58.7217C37.852 66.459 37.8551 74.8203 33.3713 77.3971C28.8875 79.974 21.6147 75.7906 17.127 68.0534Z" fill="#F0B324"/>
<path d="M17.0379 49.4362L25.2099 44.7397C27.2914 43.4965 30.2055 43.65 33.4127 45.4918C36.7567 47.6638 39.5394 50.5898 41.5352 54.0324C43.531 57.475 44.6836 61.3373 44.8997 65.3062C44.8997 68.8976 43.6353 71.4454 41.6 72.6579L33.4435 77.3544C35.4788 76.1419 36.7277 73.5941 36.7277 69.9873C36.5093 66.0211 35.3555 62.1619 33.3599 58.7221C31.3642 55.2824 28.5827 52.3588 25.2407 50.1883C22.0336 48.3465 19.1349 48.193 17.0379 49.4362Z" fill="url(#paint17_linear)"/>
<path d="M33.4127 45.4918C37.0813 47.7926 40.0505 51.0453 42.001 54.9002L33.829 59.5967C31.8786 55.7418 28.9094 52.4891 25.2408 50.1883C22.0336 48.3465 19.0732 48.193 17.038 49.4362L25.2099 44.7397C27.2915 43.4965 30.2056 43.65 33.4127 45.4918Z" fill="url(#paint18_linear)"/>
<path d="M18.3166 67.6416C14.4438 61.0682 14.4007 53.9318 18.2204 51.702C22.0401 49.4722 28.2761 52.9933 32.1488 59.5667C36.0216 66.14 36.0647 73.2764 32.245 75.5063C28.4253 77.7361 22.1893 74.215 18.3166 67.6416Z" fill="#353027"/>
<path opacity="0.7" d="M29.6967 76.8479C27.3866 76.7871 25.1265 76.1654 23.1128 75.0369C17.0687 71.7984 11.1787 62.4054 15.8352 53.1658C17.4696 50.1883 20.9542 49.4209 25.0865 51.631C28.1242 53.5328 30.6664 56.1237 32.5048 59.1916C34.3433 62.2594 35.4258 65.717 35.6637 69.2813C35.6792 74.1006 33.2893 76.8786 29.6967 76.8479Z" fill="url(#paint19_linear)"/>
<path style="mix-blend-mode:screen" opacity="0.6" d="M23.0358 57.8009C22.4036 60.7631 20.2913 62.8351 18.2868 62.4054C16.2824 61.9756 15.2031 59.2437 15.8198 56.2661C16.4366 53.2886 18.5798 51.232 20.5688 51.6617C22.5578 52.0915 23.668 54.8388 23.0358 57.8009Z" fill="url(#paint20_linear)"/>
<path d="M101.039 58.0926C101.104 58.9617 100.92 59.8312 100.507 60.6001C100.095 61.3689 99.4724 62.0056 98.7111 62.4361L92.2969 51.4468C96.7375 49.1139 100.824 53.9025 101.039 58.0926Z" fill="url(#paint21_linear)"/>
<path d="M31.4391 88.0214C31.7924 86.9208 32.5384 85.9872 33.5361 85.3968C34.0289 85.1682 34.5738 85.0733 35.1153 85.1218C35.6569 85.1703 36.176 85.3605 36.6199 85.6731C37.9447 86.498 39.0544 87.6234 39.8584 88.9572C40.6624 90.291 41.1377 91.7954 41.2455 93.3471C41.3133 93.9162 41.226 94.493 40.9926 95.0169C40.7593 95.5408 40.3886 95.9925 39.9195 96.3247C34.8313 99.0413 30.1131 92.3802 31.4391 88.0214Z" fill="url(#paint22_radial)"/>
<path d="M38.7476 87.3767C38.1642 86.693 37.4649 86.1164 36.6815 85.6731L95.4271 51.7231C96.2065 52.1658 96.9008 52.7426 97.4778 53.4267C98.1955 54.2464 98.7878 55.1669 99.2355 56.1587C99.711 57.1972 99.9781 58.3181 100.022 59.4585C100.091 60.0278 100.005 60.6051 99.7713 61.1293C99.5379 61.6535 99.1662 62.1051 98.6958 62.4361L39.9503 96.3861C40.4194 96.0539 40.7901 95.6022 41.0234 95.0783C41.2567 94.5544 41.3441 93.9776 41.2763 93.4085C41.2398 92.2671 40.9724 91.1448 40.4899 90.1087C40.0534 89.1145 39.4657 88.193 38.7476 87.3767Z" fill="url(#paint23_linear)"/>
<path d="M92.2816 51.4468C92.7745 51.2182 93.3193 51.1233 93.8609 51.1718C94.4024 51.2203 94.9215 51.4105 95.3654 51.7231C96.1448 52.1658 96.8391 52.7426 97.4161 53.4267C98.1338 54.2464 98.7261 55.1669 99.1738 56.1587L40.4282 90.1087C39.9917 89.1145 39.4041 88.193 38.6859 87.3767C38.1025 86.693 37.4032 86.1164 36.6198 85.6731C36.1759 85.3605 35.6568 85.1703 35.1153 85.1218C34.5737 85.0733 34.0289 85.1682 33.536 85.3968L92.2816 51.4468Z" fill="url(#paint24_linear)"/>
<path style="mix-blend-mode:screen" opacity="0.3" d="M95.4271 51.7231C96.2065 52.1658 96.9008 52.7426 97.4778 53.4267L38.7476 87.3767C38.1642 86.693 37.4649 86.1164 36.6815 85.6731L95.4271 51.7231Z" fill="url(#paint25_linear)"/>
<path style="mix-blend-mode:screen" opacity="0.8" d="M35.2014 90.0627C36.1419 91.137 37.3754 91.5975 37.9459 91.0756C38.5164 90.5538 38.2389 89.2953 37.2983 88.2362C36.3578 87.1772 35.1397 86.7014 34.5692 87.2233C33.9987 87.7451 34.2762 89.019 35.2014 90.0627Z" fill="url(#paint26_linear)"/>
<path d="M48.9855 53.4267C49.0145 53.371 49.0508 53.3194 49.0935 53.2733C49.952 52.5044 50.8991 51.8398 51.9151 51.2934C52.7941 50.6805 53.7919 50.2571 54.8447 50.0502L64.0959 55.376C63.0411 55.5762 62.0419 56.0002 61.1664 56.6191C60.1462 57.1665 59.1941 57.831 58.3293 58.599L58.2214 58.7525C58.2214 58.8753 48.9701 53.5495 48.9701 53.5495C48.9701 53.5495 48.9701 53.4574 48.9855 53.4267Z" fill="#F0B324"/>
<path d="M61.1355 56.6191C62.7699 55.6829 64.0959 55.0843 64.0959 55.422C63.2729 56.3541 62.265 57.1066 61.1355 57.6321C59.5011 58.5683 58.1751 59.1669 58.1751 58.8293C58.9982 57.8971 60.0061 57.1447 61.1355 56.6191Z" fill="#D28D05"/>
<path d="M63.9726 44.2793L66.5784 42.7905V41.578L63.9726 43.0668V44.2793Z" fill="#D28D05"/>
<path d="M60.7193 42.4068L63.9727 44.2793V43.0668L60.7193 41.1943V42.4068Z" fill="#D28D05"/>
<path d="M63.9726 43.0668L66.5784 41.578L63.3096 39.7055L60.7192 41.1943L63.9726 43.0668Z" fill="#F0B324"/>
<path d="M75.9838 37.3726L78.5896 35.8839V34.6714L75.9838 36.1601V37.3726Z" fill="#D28D05"/>
<path d="M72.7305 35.5155L75.9839 37.3726V36.1601L72.7305 34.2877V35.5155Z" fill="#D28D05"/>
<path d="M75.9838 36.1601L78.5896 34.6714L75.3208 32.7989L72.7305 34.2877L75.9838 36.1601Z" fill="#F0B324"/>
<path d="M85.2661 33.7658C85.2927 34.1104 85.2198 34.4553 85.0558 34.7598C84.8919 35.0644 84.6439 35.316 84.341 35.4848L81.7969 31.126C83.5701 30.159 85.189 32.0315 85.2661 33.7658Z" fill="url(#paint27_linear)"/>
<path d="M59.0694 44.7551C59.2171 44.3256 59.5118 43.9616 59.902 43.7267C60.1012 43.6335 60.3216 43.5943 60.541 43.6132C60.7603 43.6321 60.9707 43.7083 61.1509 43.8342C61.6749 44.1678 62.1127 44.6195 62.4288 45.1528C62.7448 45.686 62.9304 46.2859 62.9703 46.9038C63.0001 47.1297 62.967 47.3594 62.8745 47.5678C62.7821 47.7762 62.6339 47.9553 62.4461 48.0856C60.4108 49.1139 58.5606 46.4894 59.0694 44.7551Z" fill="url(#paint28_radial)"/>
<path d="M61.9683 44.5095C61.7372 44.239 61.4607 44.0105 61.1511 43.8342L83.0458 31.172C83.3524 31.3526 83.6283 31.5805 83.863 31.8473C84.1488 32.1732 84.3828 32.5407 84.5568 32.937C84.7516 33.3451 84.8568 33.7899 84.8652 34.2416C84.8968 34.4676 84.8644 34.6979 84.7718 34.9067C84.6792 35.1154 84.53 35.2944 84.341 35.4234L62.4925 48.0856C62.6803 47.9553 62.8285 47.7762 62.921 47.5678C63.0134 47.3594 63.0466 47.1297 63.0168 46.9038C63.0026 46.4528 62.8977 46.0092 62.7084 45.5992C62.5202 45.1998 62.2705 44.8322 61.9683 44.5095Z" fill="url(#paint29_linear)"/>
<path d="M81.7967 31.0646C81.9959 30.9713 82.2163 30.9321 82.4357 30.951C82.655 30.9699 82.8654 31.0461 83.0456 31.172C83.3522 31.3526 83.6281 31.5805 83.8628 31.8473C84.1486 32.1732 84.3826 32.5407 84.5566 32.937L62.662 45.5992C62.4879 45.2028 62.2539 44.8353 61.9681 44.5095C61.737 44.239 61.4605 44.0105 61.1509 43.8342C60.9707 43.7083 60.7603 43.6321 60.541 43.6132C60.3217 43.5943 60.1012 43.6335 59.902 43.7267L81.7967 31.0646Z" fill="url(#paint30_linear)"/>
<path style="mix-blend-mode:screen" opacity="0.3" d="M83.0456 31.172C83.3522 31.3526 83.6281 31.5805 83.8628 31.8473L61.9681 44.5095C61.737 44.239 61.4605 44.0105 61.1509 43.8342L83.0456 31.172Z" fill="url(#paint31_linear)"/>
<path style="mix-blend-mode:screen" opacity="0.5" d="M60.565 45.5839C60.9351 45.9983 61.4285 46.1824 61.6443 45.9829C61.8602 45.7834 61.7677 45.2769 61.3976 44.8472C61.0276 44.4174 60.5342 44.2486 60.3029 44.4481C60.0716 44.6476 60.195 45.1541 60.565 45.5839Z" fill="url(#paint32_linear)"/>
<path d="M78.2195 38.9535C78.4061 38.8185 78.553 38.6363 78.6452 38.4259C78.7374 38.2154 78.7714 37.9843 78.7438 37.7563C78.7279 37.3055 78.6232 36.8623 78.4354 36.4517C78.252 36.0604 78.0188 35.6941 77.7415 35.362C77.5068 35.0952 77.231 34.8673 76.9244 34.6867C76.747 34.5677 76.5423 34.4954 76.3292 34.4767C76.1162 34.4579 75.9019 34.4932 75.7063 34.5793L77.8341 33.3361C78.034 33.2458 78.2539 33.2083 78.4726 33.2272C78.6914 33.246 78.9015 33.3205 79.083 33.4435C79.3896 33.6241 79.6655 33.852 79.9002 34.1188C80.1827 34.4471 80.4164 34.8141 80.594 35.2085C80.7888 35.6166 80.894 36.0614 80.9024 36.5131C80.9329 36.742 80.9019 36.9748 80.8125 37.1878C80.7232 37.4008 80.5786 37.5864 80.3936 37.7256C79.5764 38.2014 78.8517 38.6158 78.2195 38.9535Z" fill="url(#paint33_linear)"/>
<path d="M66.2701 45.8755C66.4566 45.7405 66.6036 45.5583 66.6957 45.3479C66.7879 45.1374 66.8219 44.9063 66.7943 44.6783C66.7785 44.2275 66.6737 43.7843 66.4859 43.3737C66.3026 42.9824 66.0694 42.6161 65.7921 42.284C65.5612 42.0175 65.2845 41.794 64.9749 41.6241C64.8002 41.4998 64.5959 41.4231 64.3822 41.4016C64.1686 41.3801 63.953 41.4144 63.7568 41.5013L65.8846 40.2581C66.0845 40.1678 66.3045 40.1303 66.5232 40.1491C66.7419 40.168 66.9521 40.2425 67.1335 40.3655C67.4401 40.5461 67.716 40.774 67.9507 41.0408C68.2332 41.3691 68.4669 41.7361 68.6446 42.1305C68.8394 42.5386 68.9445 42.9834 68.9529 43.4351C68.9835 43.664 68.9525 43.8968 68.8631 44.1098C68.7737 44.3228 68.6291 44.5084 68.4441 44.6476C67.6269 45.1234 66.9022 45.5378 66.2701 45.8755Z" fill="url(#paint34_linear)"/>
<path d="M42.5868 41.9003L62.1995 30.6195V29.0233L42.5868 40.2888V41.9003Z" fill="#D28D05"/>
<path d="M31.6548 35.6229L42.5867 41.9003V40.2888L31.6548 34.0114V35.6229Z" fill="#F0B324"/>
<path d="M42.5868 40.2888L62.1995 29.0233L51.2675 22.7459L31.6548 34.0114L42.5868 40.2888Z" fill="#FFD040"/>
<path d="M37.1285 33.5663C37.8224 35.3006 40.9061 36.2676 43.882 35.8071C44.7532 35.6928 45.5953 35.4169 46.3644 34.9937C46.8132 34.7912 47.2005 34.4747 47.4874 34.0759C47.7743 33.6772 47.9507 33.2103 47.9988 32.7222V33.7658C47.9507 34.254 47.7743 34.7209 47.4874 35.1196C47.2005 35.5184 46.8132 35.8349 46.3644 36.0373C45.5945 36.4617 44.7532 36.7425 43.882 36.8661C40.937 37.3112 37.8995 36.3136 37.1285 34.61C37.0104 34.3547 36.9474 34.0776 36.9435 33.7965V32.8142C36.949 33.0754 37.0122 33.3322 37.1285 33.5663Z" fill="url(#paint35_linear)"/>
<path d="M38.5624 30.4813C39.3334 30.0595 40.1742 29.7788 41.0448 29.6525C43.9898 29.1614 47.0736 30.2051 47.8137 31.9087C48.3379 33.0445 47.7212 34.2109 46.3643 34.9783C45.5952 35.4015 44.7532 35.6774 43.8819 35.7918C40.9215 36.2522 37.8994 35.2392 37.1285 33.551C36.6042 32.4152 37.221 31.2641 38.5624 30.4813Z" fill="#FFD040"/>
<path d="M46.01 31.1873L46.8272 30.7269C46.8544 30.7113 46.8772 30.689 46.8934 30.6621C46.9096 30.6352 46.9186 30.6047 46.9197 30.5734V30.8497C46.9186 30.881 46.9096 30.9115 46.8934 30.9384C46.8772 30.9652 46.8544 30.9875 46.8272 31.0032L46.01 31.4636L43.8051 30.1897V29.9135L46.01 31.1873Z" fill="#F0B324"/>
<path d="M43.805 29.9135L46.0099 31.1873L46.8271 30.7269C46.8579 30.7168 46.8848 30.6973 46.9038 30.6711C46.9229 30.6449 46.9331 30.6134 46.9331 30.5811C46.9331 30.5488 46.9229 30.5173 46.9038 30.4911C46.8848 30.4649 46.8579 30.4454 46.8271 30.4353L45.1156 29.453C45.0401 29.4114 44.9552 29.3895 44.8689 29.3895C44.7826 29.3895 44.6977 29.4114 44.6222 29.453L43.805 29.9135Z" fill="#FFD040"/>
<path d="M48.7391 57.2638C49.4313 57.2704 50.1145 57.107 50.7281 56.788L92.4513 32.7989C92.7079 32.6716 92.9237 32.4756 93.0746 32.233C93.2255 31.9903 93.3054 31.7106 93.3054 31.4252C93.3054 31.1399 93.2255 30.8602 93.0746 30.6175C92.9237 30.3749 92.7079 30.1789 92.4513 30.0516L85.9446 26.3066C85.8994 26.2799 85.8492 26.2626 85.7971 26.2558C85.745 26.2491 85.692 26.253 85.6415 26.2674C85.5909 26.2818 85.5439 26.3063 85.5032 26.3394C85.4625 26.3726 85.4291 26.4136 85.4049 26.4601C85.3527 26.5524 85.338 26.6611 85.3639 26.7639C85.3897 26.8666 85.454 26.9557 85.5437 27.0127L92.0504 30.6962C92.3896 30.8957 92.5901 31.1413 92.5901 31.3869C92.5901 31.6324 92.3896 31.8627 92.0504 32.0622L50.3272 56.082C49.8353 56.3313 49.2911 56.4613 48.7391 56.4613C48.187 56.4613 47.6428 56.3313 47.1509 56.082L13.5996 36.8354C13.2604 36.6359 13.06 36.3904 13.06 36.1601C13.06 35.9299 13.2604 35.669 13.5996 35.4695L19.1967 32.231C19.2852 32.1769 19.3492 32.0906 19.3751 31.9903C19.401 31.8901 19.3868 31.7838 19.3354 31.6938C19.3113 31.6473 19.2779 31.6063 19.2372 31.5731C19.1965 31.54 19.1494 31.5155 19.0989 31.5011C19.0483 31.4867 18.9954 31.4828 18.9433 31.4895C18.8911 31.4963 18.8409 31.5136 18.7958 31.5403L13.1525 34.7481C12.887 34.875 12.6601 35.0697 12.4949 35.3124C12.3296 35.555 12.232 35.837 12.2119 36.1294C12.2299 36.4205 12.3268 36.7013 12.4925 36.9419C12.6581 37.1824 12.8862 37.3738 13.1525 37.4954L46.75 56.788C47.363 57.1088 48.0466 57.2723 48.7391 57.2638Z" fill="#33312F"/>
<path d="M60.6576 51.0171C60.7266 51.0157 60.7941 50.9966 60.8535 50.9617C60.9129 50.9267 60.9623 50.8771 60.9968 50.8176C61.049 50.7253 61.0637 50.6166 61.0379 50.5138C61.0121 50.4111 60.9477 50.322 60.858 50.265L52.5627 45.5071C52.47 45.4552 52.3608 45.4405 52.2575 45.4662C52.1543 45.4919 52.0649 45.556 52.0076 45.6453C51.9804 45.6914 51.9628 45.7425 51.9559 45.7956C51.9489 45.8486 51.9527 45.9025 51.9671 45.954C51.9815 46.0056 52.0061 46.0537 52.0396 46.0956C52.073 46.1375 52.1146 46.1722 52.1618 46.1978L60.4571 50.9557C60.5147 50.9988 60.5856 51.0206 60.6576 51.0171Z" fill="#33312F"/>
<path d="M21.2164 41.9771C21.282 41.9954 21.3513 41.9954 21.4169 41.9771L27.1835 38.6005C27.2307 38.5749 27.2723 38.5402 27.3057 38.4983C27.3392 38.4564 27.3638 38.4083 27.3782 38.3567C27.3926 38.3052 27.3964 38.2513 27.3894 38.1982C27.3825 38.1452 27.3649 38.0941 27.3377 38.0479C27.2804 37.9587 27.191 37.8946 27.0878 37.8689C26.9845 37.8432 26.8753 37.8579 26.7826 37.9098L21.0006 41.225C20.9109 41.282 20.8465 41.371 20.8207 41.4738C20.7949 41.5765 20.8096 41.6852 20.8618 41.7775C20.8998 41.8373 20.9521 41.8867 21.014 41.9215C21.0758 41.9564 21.1454 41.9754 21.2164 41.9771Z" fill="#33312F"/>
<path d="M36.9897 51.0478C37.0556 51.0634 37.1243 51.0634 37.1901 51.0478L42.9722 47.7172C43.0189 47.6932 43.0602 47.6599 43.0935 47.6194C43.1268 47.579 43.1514 47.5321 43.1658 47.4818C43.1803 47.4315 43.1842 47.3788 43.1774 47.3269C43.1707 47.275 43.1533 47.225 43.1264 47.1801C43.1007 47.1331 43.0658 47.0917 43.0237 47.0584C42.9817 47.0251 42.9333 47.0006 42.8815 46.9862C42.8297 46.9719 42.7756 46.9681 42.7223 46.9751C42.669 46.982 42.6177 46.9995 42.5713 47.0266L36.7893 50.3418C36.7433 50.3686 36.7032 50.4043 36.6713 50.4468C36.6394 50.4892 36.6163 50.5376 36.6034 50.5891C36.5905 50.6405 36.588 50.694 36.5961 50.7464C36.6042 50.7988 36.6227 50.8491 36.6505 50.8943C36.6903 50.9453 36.742 50.9859 36.8011 51.0127C36.8602 51.0394 36.9249 51.0514 36.9897 51.0478Z" fill="#33312F"/>
</g>
<defs>
<linearGradient id="paint0_linear" x1="56.0782" y1="17.4661" x2="53.1933" y2="14.46" gradientUnits="userSpaceOnUse">
<stop stop-color="#262B2A"/>
<stop offset="0.56" stop-color="#2D3332"/>
<stop offset="1" stop-color="#353D3C"/>
</linearGradient>
<radialGradient id="paint1_radial" cx="0" cy="0" r="1" gradientUnits="userSpaceOnUse" gradientTransform="translate(31.7166 27.335) rotate(180) scale(4.62564 4.60443)">
<stop stop-color="#45423E"/>
<stop offset="0.55" stop-color="#43403C"/>
<stop offset="0.85" stop-color="#3B3835"/>
<stop offset="1" stop-color="#33312E"/>
</radialGradient>
<linearGradient id="paint2_linear" x1="43.5118" y1="21.779" x2="45.2575" y2="24.8095" gradientUnits="userSpaceOnUse">
<stop stop-color="#3F3C39"/>
<stop offset="0.44" stop-color="#353330"/>
<stop offset="1" stop-color="#2D2B29"/>
</linearGradient>
<linearGradient id="paint3_linear" x1="42.7718" y1="20.5051" x2="44.2877" y2="23.151" gradientUnits="userSpaceOnUse">
<stop stop-color="#45423E"/>
<stop offset="1" stop-color="#3F3C39"/>
</linearGradient>
<linearGradient id="paint4_linear" x1="43.5273" y1="20.8888" x2="44.4002" y2="22.3964" gradientUnits="userSpaceOnUse">
<stop stop-color="#3C3936"/>
<stop offset="0.36" stop-color="#211F1E"/>
<stop offset="0.75" stop-color="#090808"/>
<stop offset="1"/>
</linearGradient>
<linearGradient id="paint5_linear" x1="31.6798" y1="27.8763" x2="33.3367" y2="30.2578" gradientUnits="userSpaceOnUse">
<stop stop-color="#45423E"/>
<stop offset="0.42" stop-color="#21201E"/>
<stop offset="0.78" stop-color="#090808"/>
<stop offset="1"/>
</linearGradient>
<linearGradient id="paint6_linear" x1="48.6926" y1="17.0978" x2="51.2192" y2="21.4974" gradientUnits="userSpaceOnUse">
<stop stop-color="#F0B324"/>
<stop offset="0.33" stop-color="#E1A014"/>
<stop offset="0.69" stop-color="#D69209"/>
<stop offset="1" stop-color="#D28D05"/>
</linearGradient>
<linearGradient id="paint7_linear" x1="-234.184" y1="113.336" x2="-224.298" y2="128.906" gradientUnits="userSpaceOnUse">
<stop stop-color="#F0B324"/>
<stop offset="0.33" stop-color="#E1A014"/>
<stop offset="0.69" stop-color="#D69209"/>
<stop offset="1" stop-color="#D28D05"/>
</linearGradient>
<linearGradient id="paint8_linear" x1="-24.3958" y1="90.3595" x2="149.949" y2="330.082" gradientUnits="userSpaceOnUse">
<stop stop-color="#3F3C39"/>
<stop offset="0.44" stop-color="#353330"/>
<stop offset="1" stop-color="#2D2B29"/>
</linearGradient>
<linearGradient id="paint9_linear" x1="105.78" y1="27.0696" x2="98.2544" y2="13.9139" gradientUnits="userSpaceOnUse">
<stop stop-color="#2D2B29"/>
<stop offset="0.56" stop-color="#353330"/>
<stop offset="1" stop-color="#3F3C39"/>
</linearGradient>
<linearGradient id="paint10_linear" x1="94.4486" y1="37.8866" x2="83.6227" y2="18.9627" gradientUnits="userSpaceOnUse">
<stop stop-color="#D28D05"/>
<stop offset="0.31" stop-color="#D69209"/>
<stop offset="0.67" stop-color="#E1A014"/>
<stop offset="1" stop-color="#F0B324"/>
</linearGradient>
<linearGradient id="paint11_linear" x1="68.5983" y1="40.8259" x2="61.3092" y2="33.2412" gradientUnits="userSpaceOnUse">
<stop stop-color="#D28D05"/>
<stop offset="0.34" stop-color="#D9960C"/>
<stop offset="0.9" stop-color="#ECAE20"/>
<stop offset="1" stop-color="#F0B324"/>
</linearGradient>
<radialGradient id="paint12_radial" cx="0" cy="0" r="1" gradientUnits="userSpaceOnUse" gradientTransform="translate(3.68508 67.3168) rotate(180) scale(13.291 13.2301)">
<stop stop-color="#FFD040"/>
<stop offset="0.58" stop-color="#F5BC2D"/>
<stop offset="1" stop-color="#F0B324"/>
</radialGradient>
<linearGradient id="paint13_linear" x1="35.1396" y1="52.7207" x2="39.5344" y2="60.3509" gradientUnits="userSpaceOnUse">
<stop stop-color="#F0B324"/>
<stop offset="0.1" stop-color="#ECAE20"/>
<stop offset="0.66" stop-color="#D9960C"/>
<stop offset="1" stop-color="#D28D05"/>
</linearGradient>
<linearGradient id="paint14_linear" x1="33.243" y1="49.4823" x2="37.0865" y2="56.174" gradientUnits="userSpaceOnUse">
<stop stop-color="#FFD040"/>
<stop offset="1" stop-color="#F0B324"/>
</linearGradient>
<linearGradient id="paint15_linear" x1="35.1858" y1="50.4492" x2="37.3755" y2="54.2489" gradientUnits="userSpaceOnUse">
<stop stop-color="#FFD040"/>
<stop offset="0.18" stop-color="#C4A031"/>
<stop offset="0.4" stop-color="#7F6820"/>
<stop offset="0.6" stop-color="#483B12"/>
<stop offset="0.78" stop-color="#211B08"/>
<stop offset="0.92" stop-color="#090702"/>
<stop offset="1"/>
</linearGradient>
<linearGradient id="paint16_linear" x1="-238.43" y1="289.815" x2="-226.407" y2="305.763" gradientUnits="userSpaceOnUse">
<stop stop-color="#FFD040"/>
<stop offset="0.18" stop-color="#C4A031"/>
<stop offset="0.4" stop-color="#7F6820"/>
<stop offset="0.6" stop-color="#483B12"/>
<stop offset="0.78" stop-color="#211B08"/>
<stop offset="0.92" stop-color="#090702"/>
<stop offset="1"/>
</linearGradient>
<linearGradient id="paint17_linear" x1="-1540.43" y1="1206.97" x2="-1281.41" y2="1581.02" gradientUnits="userSpaceOnUse">
<stop stop-color="#F0B324"/>
<stop offset="0.1" stop-color="#ECAE20"/>
<stop offset="0.66" stop-color="#D9960C"/>
<stop offset="1" stop-color="#D28D05"/>
</linearGradient>
<linearGradient id="paint18_linear" x1="-1460.02" y1="500.505" x2="-1389.6" y2="694.906" gradientUnits="userSpaceOnUse">
<stop stop-color="#FFD040"/>
<stop offset="1" stop-color="#F0B324"/>
</linearGradient>
<linearGradient id="paint19_linear" x1="17.7163" y1="51.5236" x2="31.1738" y2="76.24" gradientUnits="userSpaceOnUse">
<stop stop-color="#80BED9"/>
<stop offset="0.24" stop-color="#66A8C3"/>
<stop offset="0.75" stop-color="#357D98"/>
<stop offset="1" stop-color="#226D87"/>
</linearGradient>
<linearGradient id="paint20_linear" x1="19.2582" y1="51.7691" x2="19.6249" y2="62.9887" gradientUnits="userSpaceOnUse">
<stop stop-color="#69ACC9"/>
<stop offset="0.23" stop-color="#4D7F94"/>
<stop offset="0.61" stop-color="#243B45"/>
<stop offset="0.87" stop-color="#0A1013"/>
<stop offset="1"/>
</linearGradient>
<linearGradient id="paint21_linear" x1="-2.1704" y1="495.07" x2="-55.651" y2="453.353" gradientUnits="userSpaceOnUse">
<stop stop-color="#D28D05"/>
<stop offset="0.34" stop-color="#D9960C"/>
<stop offset="0.9" stop-color="#ECAE20"/>
<stop offset="1" stop-color="#F0B324"/>
</linearGradient>
<radialGradient id="paint22_radial" cx="0" cy="0" r="1" gradientUnits="userSpaceOnUse" gradientTransform="translate(-500.496 743.322) rotate(180) scale(86.6741 102.12)">
<stop stop-color="#FFD040"/>
<stop offset="0.58" stop-color="#F5BC2D"/>
<stop offset="1" stop-color="#F0B324"/>
</radialGradient>
<linearGradient id="paint23_linear" x1="-2021.37" y1="2108.01" x2="-1918.01" y2="2361.93" gradientUnits="userSpaceOnUse">
<stop stop-color="#F0B324"/>
<stop offset="0.1" stop-color="#ECAE20"/>
<stop offset="0.66" stop-color="#D9960C"/>
<stop offset="1" stop-color="#D28D05"/>
</linearGradient>
<linearGradient id="paint24_linear" x1="-2179.11" y1="1762.2" x2="-2109.9" y2="1964.34" gradientUnits="userSpaceOnUse">
<stop stop-color="#FFD040"/>
<stop offset="1" stop-color="#F0B324"/>
</linearGradient>
<linearGradient id="paint25_linear" x1="-1936.77" y1="1640.45" x2="-1901.01" y2="1746.18" gradientUnits="userSpaceOnUse">
<stop stop-color="#FFD040"/>
<stop offset="0.18" stop-color="#C4A031"/>
<stop offset="0.4" stop-color="#7F6820"/>
<stop offset="0.6" stop-color="#483B12"/>
<stop offset="0.78" stop-color="#211B08"/>
<stop offset="0.92" stop-color="#090702"/>
<stop offset="1"/>
</linearGradient>
<linearGradient id="paint26_linear" x1="-124.213" y1="353.758" x2="-112.184" y2="369.777" gradientUnits="userSpaceOnUse">
<stop stop-color="#FFD040"/>
<stop offset="0.18" stop-color="#C4A031"/>
<stop offset="0.4" stop-color="#7F6820"/>
<stop offset="0.6" stop-color="#483B12"/>
<stop offset="0.78" stop-color="#211B08"/>
<stop offset="0.92" stop-color="#090702"/>
<stop offset="1"/>
</linearGradient>
<linearGradient id="paint27_linear" x1="10.4291" y1="133.167" x2="1.99494" y2="126.592" gradientUnits="userSpaceOnUse">
<stop stop-color="#262B2A"/>
<stop offset="0.56" stop-color="#2D3332"/>
<stop offset="1" stop-color="#353D3C"/>
</linearGradient>
<radialGradient id="paint28_radial" cx="0" cy="0" r="1" gradientUnits="userSpaceOnUse" gradientTransform="translate(-86.2612 178.093) rotate(180) scale(11.9905 14.1265)">
<stop stop-color="#45423E"/>
<stop offset="0.55" stop-color="#43403C"/>
<stop offset="0.85" stop-color="#3B3835"/>
<stop offset="1" stop-color="#33312E"/>
</radialGradient>
<linearGradient id="paint29_linear" x1="-619.544" y1="452.997" x2="-603.864" y2="491.007" gradientUnits="userSpaceOnUse">
<stop stop-color="#3F3C39"/>
<stop offset="0.44" stop-color="#353330"/>
<stop offset="1" stop-color="#2D2B29"/>
</linearGradient>
<linearGradient id="paint30_linear" x1="-659.274" y1="384.226" x2="-648.999" y2="414.263" gradientUnits="userSpaceOnUse">
<stop stop-color="#45423E"/>
<stop offset="1" stop-color="#3F3C39"/>
</linearGradient>
<linearGradient id="paint31_linear" x1="-590.226" y1="356.074" x2="-584.875" y2="371.739" gradientUnits="userSpaceOnUse">
<stop stop-color="#3C3936"/>
<stop offset="0.36" stop-color="#211F1E"/>
<stop offset="0.75" stop-color="#090808"/>
<stop offset="1"/>
</linearGradient>
<linearGradient id="paint32_linear" x1="16.7627" y1="95.6542" x2="18.2213" y2="98.4545" gradientUnits="userSpaceOnUse">
<stop stop-color="#45423E"/>
<stop offset="0.42" stop-color="#21201E"/>
<stop offset="0.78" stop-color="#090808"/>
<stop offset="1"/>
</linearGradient>
<linearGradient id="paint33_linear" x1="-56.2011" y1="158.675" x2="-46.3155" y2="174.245" gradientUnits="userSpaceOnUse">
<stop stop-color="#F0B324"/>
<stop offset="0.33" stop-color="#E1A014"/>
<stop offset="0.69" stop-color="#D69209"/>
<stop offset="1" stop-color="#D28D05"/>
</linearGradient>
<linearGradient id="paint34_linear" x1="-108.509" y1="191.444" x2="-98.6235" y2="207.014" gradientUnits="userSpaceOnUse">
<stop stop-color="#F0B324"/>
<stop offset="0.33" stop-color="#E1A014"/>
<stop offset="0.69" stop-color="#D69209"/>
<stop offset="1" stop-color="#D28D05"/>
</linearGradient>
<linearGradient id="paint35_linear" x1="47.9988" y1="34.8095" x2="36.9435" y2="34.8095" gradientUnits="userSpaceOnUse">
<stop stop-color="#D28D05"/>
<stop offset="1" stop-color="#F0B324"/>
</linearGradient>
<clipPath id="clip0">
<rect width="118" height="97" fill="white" transform="matrix(-1 0 0 1 118 0)"/>
</clipPath>
</defs>
</svg>
