<svg width="414" height="347" viewBox="0 0 414 347" fill="none"
    xmlns="http://www.w3.org/2000/svg">
    <path d="M-367 103.054L-328.733 81.7994C-290.467 60.8636 -213.933 17.8775 -137.4 22.4149C-60.8667 26.6339 15.6667 77.5804 92.2 73.3614C168.733 68.8239 245.267 9.91713 321.8 1.16071C398.333 -7.5957 474.867 35.3904 551.4 56.3261C627.933 77.5804 704.467 77.5804 742.733 77.5804H781V572L657 620.5C618.733 620.5 637.033 712.5 560.5 712.5C483.967 712.5 398.333 725.5 321.8 725.5C245.267 725.5 22.5333 725.5 -54 725.5C-130.533 725.5 -60.8667 154 -137.4 154C-213.933 154 -290.467 154 -328.733 154H-367V103.054Z" fill="url(#paint0_linear)"/>
    <defs>
        <linearGradient id="paint0_linear" x1="207" y1="0" x2="207" y2="725.5" gradientUnits="userSpaceOnUse">
            <stop stop-color="#0099FF"/>
            <stop offset="1" stop-color="#075488"/>
        </linearGradient>
    </defs>
</svg>
