<svg width="90" height="96" viewBox="0 0 90 96" fill="none" xmlns="http://www.w3.org/2000/svg">
<path d="M45 0C41.9 0 39.4 2.5 39.4 5.6V50.6C39.4 53.7 41.9 56.2 45 56.2C48.1 56.2 50.6 53.7 50.6 50.6V5.6C50.6 2.5 48.1 0 45 0ZM67.3 17.1C65.1 19.3 65.2 22.9 67.5 25C75.3 32.4 80.3 43.5 78.4 55.8C76.1 70.7 63.9 82.4 49 84.1C28.7 86.5 11.3 70.5 11.3 50.6C11.3 40.4 15.9 31.4 22.8 25.4C25.2 23.3 25.3 19.6 23 17.4L22.7 17.1C20.6 15 17.3 14.9 15.1 16.9C6 25.3 0 37.3 0 50.6C0 75.4 20.2 95.6 45 95.6C69.8 95.6 90 75.4 90 50.6C90 37.3 84 25.3 74.9 16.8C72.8 14.9 69.4 15 67.3 17.1Z" fill="#353535"/>
</svg>
