<svg width="52" height="52" viewBox="0 0 52 52" fill="none" xmlns="http://www.w3.org/2000/svg">
<path d="M29.4666 0C31.6772 0 33.511 1.8338 33.511 4.04444V6.06667C33.9438 6.22766 34.3715 6.40137 34.7929 6.59028L36.2193 5.16389C37.7823 3.60088 40.3799 3.60088 41.9429 5.16389L46.836 10.0569C48.399 11.6199 48.399 14.1995 46.836 15.7625L45.4096 17.1889C45.6018 17.617 45.7699 18.049 45.9332 18.4889H47.9554C50.1661 18.4889 51.9999 20.3227 51.9999 22.5333V29.4667C51.9999 31.6773 50.1661 33.5111 47.9554 33.5111H45.9332C45.7722 33.9439 45.5984 34.3716 45.4096 34.793L46.836 36.2194C48.399 37.7825 48.399 40.362 46.836 41.925L41.9429 46.8181C40.3799 48.3811 37.7823 48.3811 36.2193 46.8181L34.7929 45.3917C34.3716 45.5805 33.9438 45.7543 33.511 45.9153V47.9556C33.511 50.1662 31.6772 52 29.4666 52H22.5332C20.3226 52 18.4888 50.1662 18.4888 47.9556V45.9153C18.0613 45.7549 17.6402 45.5788 17.2249 45.3917L15.7985 46.8181C14.2391 48.3774 11.6571 48.3701 10.0929 46.8181H10.075L5.16389 41.9431C5.16383 41.9373 5.16383 41.9309 5.16389 41.9251C3.60088 40.3621 3.60088 37.7826 5.16389 36.2196L6.60833 34.7751C6.41836 34.3606 6.23128 33.942 6.06667 33.5113H4.04444C1.83381 33.5113 0 31.6774 0 29.4668V22.5335C0 20.3229 1.83381 18.4891 4.04444 18.4891H6.06667C6.2337 18.0512 6.41507 17.6282 6.60833 17.2071L5.16389 15.7626C3.60088 14.1996 3.60088 11.6201 5.16389 10.0571L10.075 5.16403C11.638 3.60103 14.2356 3.60103 15.7986 5.16403L17.225 6.59042C17.6402 6.40329 18.0614 6.22714 18.4889 6.06681V4.04459C18.4889 1.83394 20.3227 0.000141059 22.5333 0.000141059H29.4667L29.4666 0ZM29.4666 3.46667H22.5332C22.1832 3.46667 21.9554 3.69439 21.9554 4.04444V7.22222C21.9491 7.95379 21.4275 8.65187 20.7277 8.86528C19.6364 9.2012 18.6022 9.62676 17.6221 10.1472C16.9715 10.4926 16.102 10.3618 15.5818 9.84028L13.3429 7.60139C13.0953 7.35371 12.7781 7.35371 12.5304 7.60139C12.5305 7.6074 12.5305 7.61346 12.5304 7.61941L7.61933 12.4944C7.37169 12.7421 7.37169 13.0773 7.61933 13.325L9.87624 15.5819C10.3979 16.1021 10.5287 16.9716 10.1832 17.6222C9.65513 18.6187 9.21278 19.654 8.88322 20.7278C8.66805 21.4333 7.95976 21.9568 7.22211 21.9556H4.04433C3.69431 21.9556 3.46655 22.1833 3.46655 22.5333V29.4666C3.46655 29.8167 3.69431 30.0444 4.04433 30.0444H7.22211C7.95531 30.0386 8.6617 30.5552 8.88322 31.2541C9.21278 32.3279 9.65513 33.3813 10.1832 34.3777C10.5202 35.0245 10.3899 35.8824 9.87624 36.4L7.61933 38.6569C7.37169 38.9046 7.37169 39.2398 7.61933 39.4875L12.5304 44.3805C12.7781 44.6282 13.0952 44.6282 13.3429 44.3805L15.5818 42.1416C16.102 41.62 16.9715 41.4893 17.6221 41.8347C18.6022 42.3552 19.6364 42.7807 20.7277 43.1166C21.4332 43.3318 21.9568 44.0401 21.9554 44.7777V47.9555C21.9554 48.3056 22.1832 48.5333 22.5332 48.5333H29.4666C29.8166 48.5333 30.0443 48.3056 30.0443 47.9555V44.7777C30.0443 44.0401 30.5666 43.3318 31.2721 43.1166C32.3732 42.7787 33.4158 42.3551 34.3957 41.8347C35.0463 41.4893 35.9158 41.62 36.436 42.1416L38.6749 44.3805C38.9226 44.6282 39.2397 44.6282 39.4874 44.3805L44.3804 39.4875C44.6281 39.2398 44.6281 38.9046 44.3804 38.6569L42.1415 36.418C41.6278 35.9004 41.4976 35.0425 41.8346 34.3958C42.3549 33.4159 42.7787 32.3551 43.1166 31.2541C43.3381 30.5552 44.0445 30.0408 44.7777 30.0444H47.9554C48.3055 30.0444 48.5332 29.8167 48.5332 29.4666V22.5333C48.5332 22.1833 48.3055 21.9556 47.9554 21.9556H44.7777C44.0401 21.9556 43.3318 21.4333 43.1166 20.7278C42.7787 19.6267 42.3549 18.584 41.8346 17.6041C41.4892 16.9536 41.62 16.0841 42.1415 15.5639L44.3804 13.325C44.6281 13.0773 44.6281 12.7421 44.3804 12.4944L39.4874 7.60135C39.2397 7.35367 38.9226 7.35367 38.6749 7.60135L36.436 9.84024C35.9158 10.3618 35.0463 10.4926 34.3957 10.1472C33.4159 9.62683 32.3732 9.20315 31.2721 8.86524C30.5724 8.65183 30.0507 7.95376 30.0443 7.22219V4.04441C30.0443 3.69436 29.8166 3.46663 29.4666 3.46663V3.46667ZM25.9999 13.8667C32.6804 13.8667 38.1332 19.3194 38.1332 26C38.1332 32.6805 32.6804 38.1333 25.9999 38.1333C19.3193 38.1333 13.8666 32.6805 13.8666 26C13.8666 19.3194 19.3193 13.8667 25.9999 13.8667ZM25.9999 17.3333C21.1929 17.3333 17.3332 21.1929 17.3332 26C17.3332 30.8069 21.1929 34.6667 25.9999 34.6667C30.8069 34.6667 34.6665 30.8069 34.6665 26C34.6665 21.1929 30.8069 17.3333 25.9999 17.3333Z" fill="white"/>
</svg>
